<svg xmlns="http://www.w3.org/2000/svg" xmlns:xlink="http://www.w3.org/1999/xlink" width="150" zoomAndPan="magnify" viewBox="0 0 112.5 112.499997" height="150" preserveAspectRatio="xMidYMid meet" version="1.0"><defs><clipPath id="2e3446d02e"><path d="M 0 0 L 112.003906 0 L 112.003906 112.003906 L 0 112.003906 Z M 0 0 " clip-rule="nonzero"/></clipPath><clipPath id="4c7237b404"><path d="M 29.113281 38 L 61 38 L 61 87.070312 L 29.113281 87.070312 Z M 29.113281 38 " clip-rule="nonzero"/></clipPath><clipPath id="efe7164860"><path d="M 47 63 L 82.871094 63 L 82.871094 87.070312 L 47 87.070312 Z M 47 63 " clip-rule="nonzero"/></clipPath><clipPath id="4d1ce5baa1"><path d="M 52 25.09375 L 72 25.09375 L 72 62 L 52 62 Z M 52 25.09375 " clip-rule="nonzero"/></clipPath><clipPath id="872800703b"><path d="M 58 73 L 72 73 L 72 87.070312 L 58 87.070312 Z M 58 73 " clip-rule="nonzero"/></clipPath></defs><g clip-path="url(#2e3446d02e)"><path fill="#ffffff" d="M 0 0 L 112.003906 0 L 112.003906 112.003906 L 0 112.003906 Z M 0 0 " fill-opacity="1" fill-rule="nonzero"/><path fill="#ffffff" d="M 0 0 L 112.003906 0 L 112.003906 112.003906 L 0 112.003906 Z M 0 0 " fill-opacity="1" fill-rule="nonzero"/><path fill="#ffffff" d="M 0 0 L 112.003906 0 L 112.003906 112.003906 L 0 112.003906 Z M 0 0 " fill-opacity="1" fill-rule="nonzero"/></g><g clip-path="url(#4c7237b404)"><path fill="#000000" d="M 36.941406 87.015625 C 37.0625 86.921875 37.152344 86.78125 37.234375 86.59375 C 41.070312 77.695312 44.917969 68.800781 48.761719 59.910156 C 49.269531 58.730469 49.78125 57.554688 50.347656 56.253906 C 50.5 56.503906 50.589844 56.617188 50.644531 56.746094 C 51.195312 57.992188 51.753906 59.234375 52.285156 60.488281 C 52.457031 60.890625 52.699219 61.054688 53.148438 61.050781 C 55.269531 61.035156 57.390625 61.050781 59.511719 61.046875 C 59.789062 61.046875 60.066406 61 60.476562 60.96875 C 57.148438 53.269531 53.867188 45.675781 50.589844 38.082031 C 50.519531 38.066406 50.453125 38.050781 50.390625 38.035156 C 43.304688 54.34375 36.21875 70.652344 29.113281 87.015625 Z M 36.941406 87.015625 " fill-opacity="1" fill-rule="nonzero"/></g><g clip-path="url(#efe7164860)"><path fill="#000000" d="M 67.050781 70.871094 C 67.699219 70.867188 68.039062 71.054688 68.304688 71.675781 C 70.414062 76.628906 72.566406 81.5625 74.695312 86.507812 C 74.800781 86.75 74.917969 86.917969 75.09375 87.015625 L 82.867188 87.015625 C 82.777344 86.777344 82.730469 86.636719 82.671875 86.503906 C 81.632812 84.082031 80.59375 81.660156 79.550781 79.242188 C 77.425781 74.320312 75.296875 69.398438 73.175781 64.472656 C 73.007812 64.085938 72.839844 63.820312 72.316406 63.820312 C 65.105469 63.839844 57.894531 63.835938 50.683594 63.828125 C 50.269531 63.828125 50.050781 63.953125 49.882812 64.355469 C 49.191406 66.027344 48.460938 67.679688 47.746094 69.34375 C 47.539062 69.820312 47.34375 70.304688 47.105469 70.882812 C 47.546875 70.882812 47.859375 70.882812 48.167969 70.882812 C 54.460938 70.882812 60.753906 70.890625 67.050781 70.871094 Z M 67.050781 70.871094 " fill-opacity="1" fill-rule="nonzero"/></g><g clip-path="url(#4d1ce5baa1)"><path fill="#000000" d="M 71.746094 61.007812 C 71.203125 61.007812 70.851562 61.007812 70.5 61.007812 C 68.46875 61.007812 66.4375 60.988281 64.410156 61.015625 C 63.882812 61.023438 63.617188 60.847656 63.410156 60.367188 C 60.34375 53.273438 57.257812 46.191406 54.179688 39.101562 C 53.539062 37.628906 52.886719 36.15625 52.269531 34.671875 C 52.175781 34.457031 52.152344 34.140625 52.238281 33.929688 C 53.429688 31.136719 54.640625 28.351562 55.851562 25.566406 C 55.90625 25.433594 56.027344 25.332031 56.171875 25.140625 C 61.359375 37.089844 66.515625 48.960938 71.746094 61.007812 Z M 71.746094 61.007812 " fill-opacity="1" fill-rule="nonzero"/></g><g clip-path="url(#872800703b)"><path fill="#000000" d="M 63.746094 86.675781 C 63.816406 86.835938 63.898438 86.941406 64 87.015625 L 71.75 87.015625 C 71.703125 86.878906 71.671875 86.785156 71.636719 86.703125 C 69.824219 82.5 68.015625 78.296875 66.179688 74.109375 C 66.089844 73.902344 65.710938 73.710938 65.464844 73.707031 C 63.503906 73.671875 61.539062 73.6875 59.574219 73.6875 C 59.132812 73.6875 58.695312 73.6875 58.167969 73.6875 C 58.226562 73.921875 58.238281 74.011719 58.273438 74.089844 C 60.097656 78.28125 61.933594 82.472656 63.746094 86.675781 Z M 63.746094 86.675781 " fill-opacity="1" fill-rule="nonzero"/></g></svg>